<?xml version="1.0" encoding="utf-8"?>
<!-- Generator: Adobe Illustrator 16.0.0, SVG Export Plug-In . SVG Version: 6.00 Build 0)  -->
<!DOCTYPE svg PUBLIC "-//W3C//DTD SVG 1.1//EN" "http://www.w3.org/Graphics/SVG/1.1/DTD/svg11.dtd">
<svg version="1.1" id="Layer_1" xmlns="http://www.w3.org/2000/svg" xmlns:xlink="http://www.w3.org/1999/xlink" x="0px" y="0px"
	 width="50px" height="50px" viewBox="0 0 50 50" enable-background="new 0 0 50 50" xml:space="preserve">
<path fill="#FFFFFF" stroke="#000000" stroke-width="3" stroke-miterlimit="10" d="M41.59,22.104
	c-0.455-3.122-3.135-5.52-6.381-5.52c-0.043,0-0.084,0.005-0.125,0.006c-1.332-4.438-5.443-7.673-10.313-7.673
	c-2.448,0-4.698,0.826-6.507,2.202c-0.762-0.492-1.664-0.785-2.639-0.785c-2.156,0-3.964,1.409-4.607,3.349
	c-3.994,0.167-7.184,3.448-7.184,7.485c0,1.104,0.244,2.148,0.673,3.092C3.249,26.006,2.5,28.143,2.5,30.457
	c0,5.869,4.757,10.625,10.625,10.625h21.918c5.867,0,10.623-4.756,10.623-10.625C45.666,27.063,44.068,24.047,41.59,22.104z"/>
</svg>
