<?xml version="1.0" encoding="utf-8"?>
<!-- Generator: Adobe Illustrator 16.0.0, SVG Export Plug-In . SVG Version: 6.00 Build 0)  -->
<!DOCTYPE svg PUBLIC "-//W3C//DTD SVG 1.1//EN" "http://www.w3.org/Graphics/SVG/1.1/DTD/svg11.dtd">
<svg version="1.1" id="Layer_1" xmlns="http://www.w3.org/2000/svg" xmlns:xlink="http://www.w3.org/1999/xlink" x="0px" y="0px"
	 width="50px" height="50px" viewBox="0 0 50 50" enable-background="new 0 0 50 50" xml:space="preserve">
<path fill="#FFFFFF" stroke="#000000" stroke-width="3" stroke-miterlimit="10" d="M-68.66,22.104
	c-0.455-3.122-3.135-5.52-6.381-5.52c-0.043,0-0.084,0.005-0.125,0.006c-1.332-4.438-5.443-7.673-10.313-7.673
	c-2.448,0-4.698,0.826-6.507,2.202c-0.762-0.492-1.664-0.785-2.639-0.785c-2.156,0-3.964,1.409-4.607,3.349
	c-3.994,0.167-7.184,3.448-7.184,7.485c0,1.104,0.244,2.148,0.673,3.092c-1.258,1.746-2.007,3.882-2.007,6.197
	c0,5.869,4.757,10.625,10.625,10.625h21.918c5.867,0,10.623-4.756,10.623-10.625C-64.584,27.063-66.182,24.047-68.66,22.104z"/>
<g>
	<path fill="#FFFFFF" stroke="#000000" stroke-width="3" stroke-miterlimit="10" d="M-27.915,45.416c0,1.105-0.896,2-2,2h-4.167
		c-1.104,0-2-0.895-2-2V24.584c0-1.105,0.896-2,2-2h4.167c1.104,0,2,0.895,2,2V45.416z"/>
	<polygon fill="#FFFFFF" stroke="#000000" stroke-width="3" stroke-miterlimit="10" points="-17.761,27.301 -24.88,14.97 
		-31.999,2.639 -39.118,14.97 -46.237,27.301 -40.127,27.301 -46.237,37.885 -31.999,37.885 -17.761,37.885 -23.871,27.301 	"/>
</g>
<polygon fill="#FFFFFF" stroke="#000000" stroke-width="3" stroke-miterlimit="10" points="7.875,35 19,18.125 31,20.262 35.75,25 
	42.875,35 "/>
</svg>
