<?xml version="1.0" encoding="utf-8"?>
<!-- Generator: Adobe Illustrator 16.0.0, SVG Export Plug-In . SVG Version: 6.00 Build 0)  -->
<!DOCTYPE svg PUBLIC "-//W3C//DTD SVG 1.1//EN" "http://www.w3.org/Graphics/SVG/1.1/DTD/svg11.dtd">
<svg version="1.1" id="Calque_1" xmlns="http://www.w3.org/2000/svg" xmlns:xlink="http://www.w3.org/1999/xlink" x="0px" y="0px"
	 width="50px" height="50px" viewBox="102.227 34.3 50 50" enable-background="new 102.227 34.3 50 50" xml:space="preserve">
<path d="M133.27,57.108c2.185-2.437,3.654-5.712,3.654-9.535c0-8.485-7.015-13.273-15.499-13.273h-10.25v8.947h9.114
	c3.109,0,5.715,1.47,5.715,5.041c0,3.654-2.689,4.956-6.092,4.956h-17.685v30.874h20.036c10.04,0,18.736-3.822,18.736-14.659
	C141.04,63.536,138.437,58.957,133.27,57.108 M123.189,75.004h-9.367V62.821h9.367c3.401,0,5.881,2.688,5.881,5.965
	C129.07,72.189,126.422,75.004,123.189,75.004z"/>
</svg>
