<?xml version="1.0" encoding="utf-8"?>
<!-- Generator: Adobe Illustrator 16.0.0, SVG Export Plug-In . SVG Version: 6.00 Build 0)  -->
<!DOCTYPE svg PUBLIC "-//W3C//DTD SVG 1.1//EN" "http://www.w3.org/Graphics/SVG/1.1/DTD/svg11.dtd">
<svg version="1.1" id="Calque_1" xmlns="http://www.w3.org/2000/svg" xmlns:xlink="http://www.w3.org/1999/xlink" x="0px" y="0px"
	 width="459px" height="310px" viewBox="-27.5 -80 459 310" enable-background="new -27.5 -80 459 310" xml:space="preserve">
<polyline fill="#F9E10F" points="350.8,91.1 336,105.9 351.3,121.2 366.1,106.4 350.8,91.1 "/>
<path d="M202.3,56.3c5.2-5.8,8.7-13.6,8.7-22.7C211,13.4,194.3,2,174.101,2h-24.4v21.3h21.7c7.399,0,13.6,3.5,13.6,12
	c0,8.7-6.399,11.8-14.5,11.8h-42.1v73.5h47.7c23.899,0,44.6-9.1,44.6-34.899C220.8,71.6,214.601,60.7,202.3,56.3 M178.3,98.9H156
	v-29h22.3c8.101,0,14,6.4,14,14.2C192.3,92.2,186,98.9,178.3,98.9z"/>
<path d="M41.401,2.1h-42.5v67.3h26.2V26.8H41.5c9.2,0,16.9,3.4,23,10c6.101,6.7,9.3,14.9,9.3,24.5c0,9.6-3.199,17.9-9.5,24.5
	c-6.3,6.6-13.899,10-22.8,10H26V120.4h15.4c16.399,0,30.399-5.8,41.6-17.2c11.101-11.4,16.8-25.5,16.8-42s-5.6-30.6-16.8-42
	C71.901,7.9,57.901,2.1,41.401,2.1"/>
<polyline points="346.1,45.3 346.1,45.4 350.8,39.3 350.8,0.4 311,52 273.2,2.6 272.901,2.1 249.401,2.1 249.401,120.5 
	275.901,120.5 275.901,45.6 310.7,91 343.1,49.3 346.1,45.3 "/>
<polyline fill="#FFFFFF" points="183.5,220.2 178.7,225 183.7,230 188.5,225.2 183.5,220.2 "/>
</svg>
