<?xml version="1.0" encoding="utf-8"?>
<!-- Generator: Adobe Illustrator 16.0.0, SVG Export Plug-In . SVG Version: 6.00 Build 0)  -->
<!DOCTYPE svg PUBLIC "-//W3C//DTD SVG 1.1//EN" "http://www.w3.org/Graphics/SVG/1.1/DTD/svg11.dtd">
<svg version="1.1" id="Calque_1" xmlns="http://www.w3.org/2000/svg" xmlns:xlink="http://www.w3.org/1999/xlink" x="0px" y="0px"
	 width="50px" height="50px" viewBox="-373.333 184.95 50 50" enable-background="new -373.333 184.95 50 50" xml:space="preserve">
<path d="M-342.162,208.243c2.193-2.446,3.669-5.736,3.669-9.574c0-8.521-7.044-13.33-15.564-13.33h-10.292v8.985h9.153
	c3.122,0,5.737,1.477,5.737,5.062c0,3.67-2.699,4.977-6.116,4.977h-17.758v31.003h20.12c10.081,0,18.813-3.839,18.813-14.72
	C-334.359,214.697-336.974,210.099-342.162,208.243 M-352.286,226.212h-9.406v-12.232h9.406c3.417,0,5.905,2.699,5.905,5.989
	C-346.381,223.387-349.037,226.212-352.286,226.212z"/>
</svg>
