<?xml version="1.0" encoding="utf-8"?>
<!-- Generator: Adobe Illustrator 16.0.0, SVG Export Plug-In . SVG Version: 6.00 Build 0)  -->
<!DOCTYPE svg PUBLIC "-//W3C//DTD SVG 1.1//EN" "http://www.w3.org/Graphics/SVG/1.1/DTD/svg11.dtd">
<svg version="1.1" id="Calque_1" xmlns="http://www.w3.org/2000/svg" xmlns:xlink="http://www.w3.org/1999/xlink" x="0px" y="0px"
	 width="50px" height="50px" viewBox="-430 184.95 50 50" enable-background="new -430 184.95 50 50" xml:space="preserve">
<path d="M-411.887,184.949H-430v28.682h11.166v-18.154h6.989c3.921,0,7.203,1.449,9.802,4.262c2.6,2.854,3.963,6.35,3.963,10.441
	c0,4.091-1.363,7.629-4.048,10.441c-2.685,2.813-5.924,4.261-9.717,4.261h-6.605v10.483h6.563c6.989,0,12.956-2.471,17.729-7.329
	c4.73-4.858,7.159-10.867,7.159-17.9c0-7.031-2.386-13.04-7.159-17.898C-398.889,187.421-404.856,184.949-411.887,184.949"/>
</svg>
